<svg xmlns="http://www.w3.org/2000/svg" version="1.1" xmlns:xlink="http://www.w3.org/1999/xlink" xmlns:svgjs="http://svgjs.dev/svgjs" width="100%" height="100%" viewBox="0 0 1000 600"><rect width="1000" height="600" x="0" y="0" fill="aqua"/><g><circle r="166.66666666666666" cx="475.25077311197913" cy="497.47291759975633" fill="#013DC4R" transform="matrix(0.405076113969345,0,0,0.405076113969345,0,98.4856186052088)"/><path d="M512.2492909606588 572.4729516118684L430.1999410363743 572.4729516118684L430.1999410363743 427.4456399171879L440.73864886067116 422.4729520429889L503.71661063106717 422.4729520429889L503.71661063106717 423.4900927445296L495.66424674386985 440.55545340371276L450.0624386247944 440.55545340371276L450.0624386247944 488.4458281012548L503.71661063106717 488.4458281012548L503.71661063106717 489.43471489441936L495.66424674386985 506.5283294619786L450.0624386247944 506.5283294619786L450.0624386247944 554.3904502511446L520.3016548478561 554.3904502511446L520.3016548478561 555.3793370443092L512.2492909606588 572.4729516118684Z " fill="RED" transform="matrix(0.405076113969345,0,0,0.405076113969345,0,98.4856186052088)"/><path d="M726.0265493411164 542.9297812729505L725.2507987373738 542.9297812729505L725.2507987373738 485.3518475729474Q725.2507987373738 472.85364340153956 734.6460004938115 463.6092820402741L734.6460004938115 463.6092820402741Q743.4378406695604 455.0329281433425 756.6902468168291 455.0329281433425L756.6902468168291 455.0329281433425L766.9258450606544 455.0329281433425L766.9258450606544 455.808678747085L760.8706806258862 468.5223691973103L756.6902468168291 468.5223691973103Q749.8808804061999 468.5223691973103 745.1401822722177 472.573511239077Q740.3994841382354 476.62465328084363 740.3994841382354 485.3518475729474L740.3994841382354 485.3518475729474Q740.3994841382354 485.3518475729474 740.3994841382354 536.0988662344397L740.3994841382354 536.0988662344397L726.0265493411164 542.9297812729505ZM784.7250116909698 439.81959685883567Q782.0745304615161 437.08292111785494 782.0745304615161 433.26881398278744Q782.0745304615161 429.4331582198381 784.7250116909698 426.71803110673915Q787.3754929204235 423.9813553657585 791.1680514276094 423.9813553657585Q794.9606099347952 423.9813553657585 797.6110911642489 426.71803110673915Q800.2615723937026 429.4331582198381 800.2615723937026 433.26881398278744Q800.2615723937026 437.08292111785494 797.6110911642489 439.81959685883567Q794.9606099347952 442.5347239719346 791.1680514276094 442.5347239719346Q787.3754929204235 442.5347239719346 784.7250116909698 439.81959685883567ZM784.3586850169803 542.9297812729505L783.5829344132377 542.9297812729505L783.5829344132377 460.3554392301317L797.9774178382386 453.52452419162086L798.7531684419811 453.52452419162086L798.7531684419811 536.0988662344397L784.3586850169803 542.9297812729505ZM825.2579807365184 428.0755946632886L837.0666288157107 422.4729514140368L837.8423794194532 422.4729514140368L837.8423794194532 459.12716744087265L826.0121827123793 464.72981069012445L825.2579807365184 464.72981069012445L825.2579807365184 428.0755946632886ZM858.2920272792223 513.1495775403891L858.2920272792223 513.1495775403891L872.6865107042231 506.34021112975995L873.440712680084 506.34021112975995L873.440712680084 512.3953755645282Q873.440712680084 520.8855349499329 878.3537998371202 525.2599064099256L878.3537998371202 525.2599064099256Q883.0514007153389 529.4403402189828 889.7314753586776 529.4403402189828L889.7314753586776 529.4403402189828Q897.4458841403397 529.4403402189828 901.777158344569 524.5057044340648L901.777158344569 524.5057044340648Q906.3239188276157 519.3555823703296 906.3239188276157 513.3004179355612L906.3239188276157 513.3004179355612Q906.3239188276157 506.79273231527645 901.4754775542247 503.0001738080906L901.4754775542247 503.0001738080906Q897.2950437451676 499.74633099794823 889.6452808471507 499.74633099794823L889.6452808471507 499.74633099794823Q876.1558397931828 499.74633099794823 868.3552364999938 493.8204583304704L868.3552364999938 493.8204583304704Q861.4596755778377 488.67033626673503 861.4596755778377 477.8529250701027L861.4596755778377 477.8529250701027Q861.4596755778377 467.31564603593296 871.0919122409745 460.4200851137769L871.0919122409745 460.4200851137769Q878.5908347438193 455.0329281433425 889.7314753586776 455.0329281433425L889.7314753586776 455.0329281433425Q900.3980461601378 455.0329281433425 908.2848439648537 461.71300278668116L908.2848439648537 461.71300278668116Q914.3400083996221 466.9277707340617 915.7837664676985 473.82333165621776L915.7837664676985 473.82333165621776L901.3892830426977 480.6542466947286L900.635081066837 480.6542466947286L900.635081066837 478.45628665079136Q900.635081066837 474.51288774843334 898.3724751392544 471.7115661238075L898.3724751392544 471.7115661238075Q894.7307570272408 467.0139652455886 887.9860365002569 467.0139652455886L887.9860365002569 467.0139652455886Q882.5988795298225 467.0139652455886 879.2372935802714 470.37555119513974Q875.8541590028385 473.75868577257256 875.8541590028385 477.8529250701027L875.8541590028385 477.8529250701027Q875.8541590028385 482.7013663434937 879.9483983003687 485.56733385176483L879.9483983003687 485.56733385176483Q882.232552855833 487.16193231501336 889.6452808471507 487.16193231501336L889.6452808471507 487.16193231501336Q905.0310011547114 487.16193231501336 912.7669585642552 494.20833363234163L912.7669585642552 494.20833363234163Q921.170923438133 501.8580965303585 921.170923438133 514.140814422949L921.170923438133 514.140814422949Q921.170923438133 523.9885373649031 912.4437291460291 532.9312179358243L912.4437291460291 532.9312179358243Q904.1906046673237 541.3998286933472 889.7314753586776 541.3998286933472L889.7314753586776 541.3998286933472Q876.6299096065811 541.3998286933472 867.6872290356599 534.1379410972015L867.6872290356599 534.1379410972015Q858.2920272792223 526.4881781991846 858.2920272792223 513.1495775403891ZM1007.1499486862664 439.81959685883567Q1004.4994674568126 437.08292111785494 1004.4994674568126 433.26881398278744Q1004.4994674568126 429.4331582198381 1007.1499486862664 426.71803110673915Q1009.80042991572 423.9813553657585 1013.5929884229059 423.9813553657585Q1017.3855469300918 423.9813553657585 1020.0360281595455 426.71803110673915Q1022.6865093889993 429.4331582198381 1022.6865093889993 433.26881398278744Q1022.6865093889993 437.08292111785494 1020.0360281595455 439.81959685883567Q1017.3855469300918 442.5347239719346 1013.5929884229059 442.5347239719346Q1009.80042991572 442.5347239719346 1007.1499486862664 439.81959685883567ZM1006.762073384395 542.9297812729505L1006.0078714085342 542.9297812729505L1006.0078714085342 460.3554392301317L1020.402354833535 453.52452419162086L1021.1565568093959 453.52452419162086L1021.1565568093959 536.0988662344397L1006.762073384395 542.9297812729505ZM1048.4371197076757 542.9297812729505L1047.682917731815 542.9297812729505L1047.682917731815 485.3518475729474Q1047.682917731815 472.85364340153956 1057.0781194882525 463.6092820402741L1057.0781194882525 463.6092820402741Q1065.8699596640017 455.0329281433425 1079.1223658112704 455.0329281433425L1079.1223658112704 455.0329281433425Q1091.1680487971616 455.0329281433425 1099.9598889729104 463.82476831909145L1099.9598889729104 463.82476831909145Q1101.6191333198044 465.505561293867 1102.9766968763538 467.76816722144946L1102.9766968763538 467.76816722144946Q1104.355809060785 465.5702071775122 1106.0150534076788 463.9109628306184L1106.0150534076788 463.9109628306184Q1115.4749010477617 455.0329281433425 1126.8525765693194 455.0329281433425L1126.8525765693194 455.0329281433425Q1139.954142321416 455.0329281433425 1148.8968228923368 463.6092820402741L1148.8968228923368 463.6092820402741Q1158.2920246487747 472.7028030063674 1158.2920246487747 485.3518475729474L1158.2920246487747 485.3518475729474L1158.2920246487747 536.0988662344397L1143.8975412237737 542.9297812729505L1143.143339247913 542.9297812729505L1143.143339247913 485.3518475729474Q1143.143339247913 476.62465328084363 1138.4026411139307 472.573511239077Q1133.6619429799484 468.5223691973103 1126.8525765693194 468.5223691973103Q1120.0216615308086 468.5223691973103 1115.302512024708 472.573511239077Q1110.5618138907257 476.62465328084363 1110.5618138907257 485.3518475729474L1110.5618138907257 485.3518475729474L1110.5618138907257 536.0988662344397L1096.1673304657247 542.9297812729505L1095.413128489864 542.9297812729505L1095.413128489864 485.3518475729474Q1095.413128489864 476.62465328084363 1090.6724303558817 472.573511239077Q1085.9317322218994 468.5223691973103 1079.1223658112704 468.5223691973103Q1072.2914507727594 468.5223691973103 1067.572301266659 472.573511239077Q1062.8316031326767 476.62465328084363 1062.8316031326767 485.3518475729474L1062.8316031326767 485.3518475729474L1062.8316031326767 536.0988662344397L1048.4371197076757 542.9297812729505ZM1238.5822121361293 485.3518475729474L1238.5822121361293 536.0988662344397L1224.1877287111283 542.9297812729505L1223.4335267352676 542.9297812729505L1223.4335267352676 534.9567889567077Q1217.3783623004992 541.3998286933472 1207.142764056674 541.3998286933472L1207.142764056674 541.3998286933472Q1192.985315538372 541.3998286933472 1185.098517733656 532.8450234242973Q1177.2332685568222 524.2902181552474 1177.2332685568222 512.6108618433457L1177.2332685568222 512.6108618433457Q1177.2332685568222 500.500532973809 1185.7880738258718 492.0103735884044L1185.7880738258718 492.0103735884044Q1194.0411983045774 483.821894993344 1207.142764056674 483.821894993344L1207.142764056674 483.821894993344Q1216.4733199294665 483.821894993344 1223.4335267352676 490.2649347299836L1223.4335267352676 490.2649347299836Q1223.4335267352676 476.86168818754277 1218.7359258570486 472.6166084948404L1218.7359258570486 472.6166084948404Q1214.1891653740022 468.5223691973103 1207.142764056674 468.5223691973103L1207.142764056674 468.5223691973103L1188.74023584567 468.5223691973103L1188.74023584567 467.76816722144946L1194.7954002804381 455.0329281433425L1207.142764056674 455.0329281433425Q1220.3951702039426 455.0329281433425 1229.1870103796914 463.6092820402741L1229.1870103796914 463.6092820402741Q1238.5822121361293 472.7674488900126 1238.5822121361293 485.3518475729474L1238.5822121361293 485.3518475729474ZM1192.0802731673393 512.6108618433457L1192.0802731673393 512.6108618433457Q1192.0802731673393 519.3555823703296 1196.152963836988 523.751502458204L1196.152963836988 523.751502458204Q1200.0963627393458 527.9965821509063 1207.228958568201 527.9965821509063L1207.228958568201 527.9965821509063Q1214.6416865595188 527.9965821509063 1218.7359258570486 523.6868565745588L1218.7359258570486 523.6868565745588Q1223.2826863400956 518.8384153011679 1223.2826863400956 512.7617022385177L1223.2826863400956 512.7617022385177Q1223.2826863400956 505.95233582788865 1218.5850854618766 501.70725613518636Q1213.8874845836576 497.462176442484 1207.293604451846 497.462176442484L1207.293604451846 497.462176442484Q1200.39804352969 497.462176442484 1196.2391583485146 501.94429104188544Q1192.0802731673393 506.40485701340515 1192.0802731673393 512.6108618433457ZM1276.464699952224 485.3518475729474L1276.464699952224 511.102457891624Q1276.464699952224 519.808103555846 1281.2053980862065 523.8592455976127Q1285.924547592307 527.9319362672611 1292.7554626308179 527.9319362672611Q1299.564829041447 527.9319362672611 1304.3055271754292 523.8592455976127Q1309.0462253094115 519.808103555846 1309.0462253094115 511.102457891624L1309.0462253094115 511.102457891624L1309.0462253094115 485.3518475729474Q1309.0462253094115 476.62465328084363 1304.3055271754292 472.573511239077Q1299.564829041447 468.5223691973103 1292.7554626308179 468.5223691973103Q1285.924547592307 468.5223691973103 1281.2053980862065 472.573511239077Q1276.464699952224 476.62465328084363 1276.464699952224 485.3518475729474L1276.464699952224 485.3518475729474ZM1261.3160145513625 511.102457891624L1261.3160145513625 511.102457891624L1261.3160145513625 485.3518475729474Q1261.3160145513625 472.85364340153956 1270.7112163078 463.6092820402741L1270.7112163078 463.6092820402741Q1279.5030564835492 455.0329281433425 1292.7554626308179 455.0329281433425Q1306.0078687780865 455.0329281433425 1314.7997089538355 463.6092820402741L1314.7997089538355 463.6092820402741Q1324.1949107102732 472.7674488900126 1324.1949107102732 485.3518475729474L1324.1949107102732 485.3518475729474L1324.1949107102732 542.1540306692079Q1324.1949107102732 554.6737834684976 1314.7997089538355 563.8965962018814L1314.7997089538355 563.8965962018814Q1306.0078687780865 572.4729500988128 1292.7554626308179 572.4729500988128L1292.7554626308179 572.4729500988128L1269.418298634896 572.4729500988128L1269.418298634896 571.7187481229521L1275.4734630696641 558.9835090448452L1292.7554626308179 558.9835090448452Q1299.564829041447 558.9835090448452 1304.3055271754292 554.9323670030785Q1309.0462253094115 550.8812249613118 1309.0462253094115 542.1540306692079L1309.0462253094115 542.1540306692079L1309.0462253094115 534.9567889567077Q1303.2927416649875 541.3998286933472 1292.7554626308179 541.3998286933472L1292.7554626308179 541.3998286933472Q1279.6538968787213 541.3998286933472 1270.7112163078 532.8450234242973L1270.7112163078 532.8450234242973Q1261.3160145513625 523.751502458204 1261.3160145513625 511.102457891624ZM1411.3160132361386 506.34021112975995L1412.0702152119993 506.34021112975995L1412.0702152119993 511.102457891624Q1412.0702152119993 523.6006620630319 1402.6750134555618 532.8450234242973L1402.6750134555618 532.8450234242973Q1393.8831732798126 541.3998286933472 1380.630767132544 541.3998286933472L1380.630767132544 541.3998286933472Q1367.5292013804474 541.3998286933472 1358.5865208095265 532.8450234242973L1358.5865208095265 532.8450234242973Q1349.1913190530886 523.751502458204 1349.1913190530886 511.102457891624L1349.1913190530886 511.102457891624L1349.1913190530886 485.3518475729474Q1349.1913190530886 472.85364340153956 1358.5865208095265 463.6092820402741L1358.5865208095265 463.6092820402741Q1367.3783609852753 455.0329281433425 1380.630767132544 455.0329281433425L1380.630767132544 455.0329281433425Q1393.516846605823 455.0329281433425 1402.6750134555618 463.6092820402741L1402.6750134555618 463.6092820402741Q1412.0702152119993 472.40112221602305 1412.0702152119993 483.15388752901015L1412.0702152119993 483.15388752901015L1412.0702152119993 483.3047279241823L1365.8484084056722 519.5064227655016Q1366.9904856834041 522.0922581113102 1369.0376053321693 523.8376969697309L1369.0376053321693 523.8376969697309Q1373.8214007219149 527.9319362672611 1380.630767132544 527.9319362672611Q1387.440133543173 527.9319362672611 1392.1808316771553 523.8376969697309Q1396.921529811138 519.7434576722007 1396.921529811138 513.1495775403891L1396.921529811138 513.1495775403891L1411.3160132361386 506.34021112975995ZM1364.3400044539503 485.3518475729474L1364.3400044539503 504.2068969694679L1396.0164874401048 478.52093253443655Q1394.7882156508458 474.8145685387777 1392.223928932919 472.6166084948404L1392.223928932919 472.6166084948404Q1387.440133543173 468.5223691973103 1380.630767132544 468.5223691973103Q1373.8214007219149 468.5223691973103 1369.0807025879326 472.573511239077Q1364.3400044539503 476.62465328084363 1364.3400044539503 485.3518475729474L1364.3400044539503 485.3518475729474ZM1510.5474446315407 485.3518475729474L1510.5474446315407 511.102457891624Q1510.5474446315407 519.808103555846 1515.288142765523 523.8592455976127Q1520.0288408995052 527.9319362672611 1526.8382073101343 527.9319362672611Q1533.669122348645 527.9319362672611 1538.3882718547457 523.8592455976127Q1543.128969988728 519.808103555846 1543.128969988728 511.102457891624L1543.128969988728 511.102457891624L1543.128969988728 485.3518475729474Q1543.128969988728 476.62465328084363 1538.3882718547457 472.573511239077Q1533.669122348645 468.5223691973103 1526.8382073101343 468.5223691973103Q1520.0288408995052 468.5223691973103 1515.288142765523 472.573511239077Q1510.5474446315407 476.62465328084363 1510.5474446315407 485.3518475729474L1510.5474446315407 485.3518475729474ZM1495.398759230679 511.102457891624L1495.398759230679 511.102457891624L1495.398759230679 485.3518475729474Q1495.398759230679 472.85364340153956 1504.7939609871169 463.6092820402741L1504.7939609871169 463.6092820402741Q1513.5858011628657 455.0329281433425 1526.8382073101343 455.0329281433425Q1540.090613457403 455.0329281433425 1548.8824536331522 463.6092820402741L1548.8824536331522 463.6092820402741Q1558.2776553895897 472.7674488900126 1558.2776553895897 485.3518475729474L1558.2776553895897 485.3518475729474L1558.2776553895897 542.1540306692079Q1558.2776553895897 554.6737834684976 1548.8824536331522 563.8965962018814L1548.8824536331522 563.8965962018814Q1540.090613457403 572.4729500988128 1526.8382073101343 572.4729500988128L1526.8382073101343 572.4729500988128L1503.5010433142124 572.4729500988128L1503.5010433142124 571.7187481229521L1509.5777563768625 558.9835090448452L1526.8382073101343 558.9835090448452Q1533.669122348645 558.9835090448452 1538.3882718547457 554.9323670030785Q1543.128969988728 550.8812249613118 1543.128969988728 542.1540306692079L1543.128969988728 542.1540306692079L1543.128969988728 534.9567889567077Q1537.3754863443041 541.3998286933472 1526.8382073101343 541.3998286933472L1526.8382073101343 541.3998286933472Q1513.7366415580377 541.3998286933472 1504.7939609871169 532.8450234242973L1504.7939609871169 532.8450234242973Q1495.398759230679 523.751502458204 1495.398759230679 511.102457891624ZM1645.398757915455 506.34021112975995L1646.1529598913162 506.34021112975995L1646.1529598913162 511.102457891624Q1646.1529598913162 523.6006620630319 1636.7577581348783 532.8450234242973L1636.7577581348783 532.8450234242973Q1627.987466587011 541.3998286933472 1614.7135118118608 541.3998286933472L1614.7135118118608 541.3998286933472Q1601.6119460597643 541.3998286933472 1592.669265488843 532.8450234242973L1592.669265488843 532.8450234242973Q1583.2740637324055 523.751502458204 1583.2740637324055 511.102457891624L1583.2740637324055 511.102457891624L1583.2740637324055 485.3518475729474Q1583.2740637324055 472.85364340153956 1592.669265488843 463.6092820402741L1592.669265488843 463.6092820402741Q1601.4611056645922 455.0329281433425 1614.7135118118608 455.0329281433425L1614.7135118118608 455.0329281433425Q1627.59959128514 455.0329281433425 1636.7577581348783 463.6092820402741L1636.7577581348783 463.6092820402741Q1646.1529598913162 472.40112221602305 1646.1529598913162 483.15388752901015L1646.1529598913162 483.15388752901015L1646.1529598913162 483.3047279241823L1599.9527017128703 519.5064227655016Q1601.0732303627206 522.0922581113102 1603.1203500114857 523.8376969697309L1603.1203500114857 523.8376969697309Q1607.9041454012317 527.9319362672611 1614.7135118118608 527.9319362672611Q1621.5444268503716 527.9319362672611 1626.2635763564722 523.8376969697309Q1631.0042744904545 519.7434576722007 1631.0042744904545 513.1495775403891L1631.0042744904545 513.1495775403891L1645.398757915455 506.34021112975995ZM1598.4227491332672 485.3518475729474L1598.4227491332672 504.2068969694679L1630.0992321194212 478.52093253443655Q1628.8925089580443 474.8145685387777 1626.3066736122355 472.6166084948404L1626.3066736122355 472.6166084948404Q1621.5444268503716 468.5223691973103 1614.7135118118608 468.5223691973103Q1607.9041454012317 468.5223691973103 1603.1634472672495 472.573511239077Q1598.4227491332672 476.62465328084363 1598.4227491332672 485.3518475729474L1598.4227491332672 485.3518475729474ZM1669.64096428241 542.9297812729505L1668.8867623065494 542.9297812729505L1668.8867623065494 485.3518475729474Q1668.8867623065494 472.85364340153956 1678.2819640629868 463.6092820402741L1678.2819640629868 463.6092820402741Q1687.0738042387356 455.0329281433425 1700.3262103860047 455.0329281433425L1700.3262103860047 455.0329281433425Q1713.4277761381013 455.0329281433425 1722.3704567090222 463.6092820402741L1722.3704567090222 463.6092820402741Q1731.76565846546 472.7028030063674 1731.76565846546 485.3518475729474L1731.76565846546 485.3518475729474L1731.76565846546 536.0988662344397L1717.371175040459 542.9297812729505L1716.6169730645984 542.9297812729505L1716.6169730645984 485.3518475729474Q1716.6169730645984 476.62465328084363 1711.876274930616 472.573511239077Q1707.1355767966338 468.5223691973103 1700.3262103860047 468.5223691973103Q1693.5168439753757 468.5223691973103 1688.7761458413934 472.573511239077Q1684.0354477074106 476.62465328084363 1684.0354477074106 485.3518475729474L1684.0354477074106 485.3518475729474L1684.0354477074106 536.0988662344397L1669.64096428241 542.9297812729505ZM1816.6026064358612 506.34021112975995L1817.3783570396035 506.34021112975995L1817.3783570396035 511.102457891624Q1817.3783570396035 523.6006620630319 1807.983155283166 532.8450234242973L1807.983155283166 532.8450234242973Q1799.1913151074173 541.3998286933472 1785.9389089601482 541.3998286933472L1785.9389089601482 541.3998286933472Q1772.81579458017 541.3998286933472 1763.8946626371308 532.8450234242973L1763.8946626371308 532.8450234242973Q1754.4994608806933 523.751502458204 1754.4994608806933 511.102457891624L1754.4994608806933 511.102457891624L1754.4994608806933 485.3518475729474Q1754.4994608806933 472.85364340153956 1763.8946626371308 463.6092820402741L1763.8946626371308 463.6092820402741Q1772.664954184998 455.0329281433425 1785.9389089601482 455.0329281433425L1785.9389089601482 455.0329281433425Q1798.803439805546 455.0329281433425 1807.983155283166 463.6092820402741L1807.983155283166 463.6092820402741Q1817.3783570396035 472.40112221602305 1817.3783570396035 483.15388752901015L1817.3783570396035 483.15388752901015L1817.3783570396035 483.3047279241823L1771.1565502332764 519.5064227655016Q1772.2986275110084 522.0922581113102 1774.3457471597735 523.8376969697309L1774.3457471597735 523.8376969697309Q1779.1079939216374 527.9319362672611 1785.9389089601482 527.9319362672611Q1792.7482753707777 527.9319362672611 1797.48897350476 523.8376969697309Q1802.2081230108602 519.7434576722007 1802.2081230108602 513.1495775403891L1802.2081230108602 513.1495775403891L1816.6026064358612 506.34021112975995ZM1769.6481462815545 485.3518475729474L1769.6481462815545 504.2068969694679L1801.3030806398274 478.52093253443655Q1800.09635747845 474.8145685387777 1797.5320707605233 472.6166084948404L1797.5320707605233 472.6166084948404Q1792.7482753707777 468.5223691973103 1785.9389089601482 468.5223691973103Q1779.1079939216374 468.5223691973103 1774.3672957876552 472.573511239077Q1769.6481462815545 476.62465328084363 1769.6481462815545 485.3518475729474L1769.6481462815545 485.3518475729474ZM1840.8448128028163 542.9297812729505L1840.090610826955 542.9297812729505L1840.090610826955 485.3518475729474Q1840.090610826955 472.85364340153956 1849.485812583393 463.6092820402741L1849.485812583393 463.6092820402741Q1858.2776527591423 455.0329281433425 1871.5300589064104 455.0329281433425L1871.5300589064104 455.0329281433425L1881.7656571502357 455.0329281433425L1881.7656571502357 455.808678747085L1875.7104927154678 468.5223691973103L1871.5300589064104 468.5223691973103Q1864.7206924957813 468.5223691973103 1859.979994361799 472.573511239077Q1855.2392962278168 476.62465328084363 1855.2392962278168 485.3518475729474L1855.2392962278168 485.3518475729474Q1855.2392962278168 485.3518475729474 1855.2392962278168 536.0988662344397L1855.2392962278168 536.0988662344397L1840.8448128028163 542.9297812729505ZM1952.2081216956362 485.3518475729474L1952.2081216956362 536.0988662344397L1937.8136382706357 542.9297812729505L1937.059436294775 542.9297812729505L1937.059436294775 534.9567889567077Q1931.0042718600066 541.3998286933472 1920.7686736161813 541.3998286933472L1920.7686736161813 541.3998286933472Q1906.6112250978795 541.3998286933472 1898.7244272931634 532.8450234242973Q1890.8591781163295 524.2902181552474 1890.8591781163295 512.6108618433457L1890.8591781163295 512.6108618433457Q1890.8591781163295 500.500532973809 1899.4139833853792 492.0103735884044L1899.4139833853792 492.0103735884044Q1907.6671078640848 483.821894993344 1920.7686736161813 483.821894993344L1920.7686736161813 483.821894993344Q1930.0992294889734 483.821894993344 1937.059436294775 490.2649347299836L1937.059436294775 490.2649347299836Q1937.059436294775 476.86168818754277 1932.361835416556 472.6166084948404L1932.361835416556 472.6166084948404Q1927.8150749335095 468.5223691973103 1920.7686736161813 468.5223691973103L1920.7686736161813 468.5223691973103L1902.3661454051771 468.5223691973103L1902.3661454051771 467.76816722144946L1908.4213098399455 455.0329281433425L1920.7686736161813 455.0329281433425Q1934.0426283913316 455.0329281433425 1942.8129199391988 463.6092820402741L1942.8129199391988 463.6092820402741Q1952.2081216956362 472.7674488900126 1952.2081216956362 485.3518475729474L1952.2081216956362 485.3518475729474ZM1905.7061827268467 512.6108618433457L1905.7061827268467 512.6108618433457Q1905.7061827268467 519.3555823703296 1909.8004220243765 523.751502458204L1909.8004220243765 523.751502458204Q1913.722272298853 527.9965821509063 1920.8548681277084 527.9965821509063L1920.8548681277084 527.9965821509063Q1928.2675961190257 527.9965821509063 1932.361835416556 523.6868565745588L1932.361835416556 523.6868565745588Q1936.9085958996025 518.8384153011679 1936.9085958996025 512.7617022385177L1936.9085958996025 512.7617022385177Q1936.9085958996025 505.95233582788865 1932.210995021384 501.70725613518636Q1927.5133941431654 497.462176442484 1920.9195140113534 497.462176442484L1920.9195140113534 497.462176442484Q1914.0455017170793 497.462176442484 1909.865067908022 501.94429104188544Q1905.7061827268467 506.40485701340515 1905.7061827268467 512.6108618433457ZM1985.6946894238567 542.9297812729505L1984.940487447996 542.9297812729505L1984.940487447996 470.35400256725796L1965.482076470787 470.35400256725796L1965.482076470787 469.5782519635154L1971.6018867892003 456.56288072294586L1984.940487447996 456.56288072294586L1984.940487447996 429.28231782466594L1999.334970872997 422.4729514140368L2000.0891728488577 422.4729514140368L2000.0891728488577 456.56288072294586L2019.5691324539484 456.56288072294586L2019.5691324539484 457.3170826988067L2013.4277735076535 470.35400256725796L2000.0891728488577 470.35400256725796L2000.0891728488577 536.0988662344397L1985.6946894238567 542.9297812729505ZM2032.821538601217 511.102457891624L2032.821538601217 511.102457891624L2032.821538601217 485.3518475729474Q2032.821538601217 472.85364340153956 2042.216740357655 463.6092820402741L2042.216740357655 463.6092820402741Q2051.008580533404 455.0329281433425 2064.2609866806724 455.0329281433425L2064.2609866806724 455.0329281433425Q2077.362552432769 455.0329281433425 2086.3052330036903 463.6092820402741L2086.3052330036903 463.6092820402741Q2095.700434760128 472.7028030063674 2095.700434760128 485.3518475729474L2095.700434760128 485.3518475729474L2095.700434760128 511.102457891624Q2095.700434760128 523.6006620630319 2086.3052330036903 532.8450234242973L2086.3052330036903 532.8450234242973Q2077.513392827941 541.3998286933472 2064.2609866806724 541.3998286933472L2064.2609866806724 541.3998286933472Q2051.1594209285763 541.3998286933472 2042.216740357655 532.8450234242973L2042.216740357655 532.8450234242973Q2032.821538601217 523.751502458204 2032.821538601217 511.102457891624ZM2047.9702240020788 485.3518475729474L2047.9702240020788 511.102457891624Q2047.9702240020788 519.808103555846 2052.710922136061 523.8592455976127Q2057.4516202700433 527.9319362672611 2064.2609866806724 527.9319362672611Q2071.0703530913015 527.9319362672611 2075.811051225284 523.8592455976127Q2080.5517493592665 519.808103555846 2080.5517493592665 511.102457891624L2080.5517493592665 511.102457891624L2080.5517493592665 485.3518475729474Q2080.5517493592665 476.62465328084363 2075.811051225284 472.573511239077Q2071.0703530913015 468.5223691973103 2064.2609866806724 468.5223691973103Q2057.4516202700433 468.5223691973103 2052.710922136061 472.573511239077Q2047.9702240020788 476.62465328084363 2047.9702240020788 485.3518475729474L2047.9702240020788 485.3518475729474ZM2119.1884391512217 542.9297812729505L2118.434237175361 542.9297812729505L2118.434237175361 485.3518475729474Q2118.434237175361 472.85364340153956 2127.829438931799 463.6092820402741L2127.829438931799 463.6092820402741Q2136.599730479666 455.0329281433425 2149.8736852548163 455.0329281433425L2149.8736852548163 455.0329281433425L2160.08773487076 455.0329281433425L2160.08773487076 455.808678747085L2154.032570435992 468.5223691973103L2149.8736852548163 468.5223691973103Q2143.0427702163056 468.5223691973103 2138.323620710205 472.573511239077Q2133.5829225762227 476.62465328084363 2133.5829225762227 485.3518475729474L2133.5829225762227 485.3518475729474Q2133.5829225762227 485.3518475729474 2133.5829225762227 536.0988662344397L2133.5829225762227 536.0988662344397L2119.1884391512217 542.9297812729505Z " fill="BLUE" transform="matrix(0.405076113969345,0,0,0.405076113969345,0,98.4856186052088)"/></g></svg>